PathFileType	4	(X/Y/Z)	c:\Git\powerlifing_model_clean\simulations\HC835B\Session1\HC835B_CUT_0004\marker_experimental.trc
DataRate	CameraRate	NumFrames	NumMarkers	Units	OrigDataRate	OrigDataStartFrame	OrigNumFrames
240.000000	240.000000	4	38	mm	240.000000	0	77
Frame#	Time	RPSI			LPSI			RASI			LASI			RTH1			RTH2			RTH3			RTH4			RSK1			RSK2			RSK3			RSK4			RCAL1			RCAL2			RCAL3			RST			RPT			RTN			RFMB			RSMB			RVMB			RFMH			RSMH			RVMH			RPM			LTH1			LTH2			LTH3			LTH4			LSK1			LSK2			LSK3			LSK4			LCAL1			LCAL2			LCAL3			LFMH			LVMH			
		X1	Y1	Z1	X2	Y2	Z2	X3	Y3	Z3	X4	Y4	Z4	X5	Y5	Z5	X6	Y6	Z6	X7	Y7	Z7	X8	Y8	Z8	X9	Y9	Z9	X10	Y10	Z10	X11	Y11	Z11	X12	Y12	Z12	X13	Y13	Z13	X14	Y14	Z14	X15	Y15	Z15	X16	Y16	Z16	X17	Y17	Z17	X18	Y18	Z18	X19	Y19	Z19	X20	Y20	Z20	X21	Y21	Z21	X22	Y22	Z22	X23	Y23	Z23	X24	Y24	Z24	X25	Y25	Z25	X26	Y26	Z26	X27	Y27	Z27	X28	Y28	Z28	X29	Y29	Z29	X30	Y30	Z30	X31	Y31	Z31	X32	Y32	Z32	X33	Y33	Z33	X34	Y34	Z34	X35	Y35	Z35	X36	Y36	Z36	X37	Y37	Z37	X38	Y38	Z38	

1	0	296.9153747558594	1066.47412109375	298.4722595214844	199.7913360595704	1032.188598632813	326.9202575683594	302.0951843261719	1023.719299316406	90.23713684082033	109.7292938232422	928.9453125000002	152.7746887207032	449.8690490722657	849.0830688476565	-12.97105598449707	412.6210937500001	864.9390869140627	-58.18102645874025	446.0229492187501	797.470397949219	-79.92276000976564	402.7032775878907	805.6929931640627	-118.3928375244141	565.9373779296876	401.2023925781251	-153.4886322021485	556.2530517578126	392.3955078125001	-213.496810913086	576.9645385742189	348.3971252441407	-176.7845764160157	556.2542114257814	336.3793640136719	-231.7863159179688	593.9749145507814	185.0574493408203	-133.7108154296875	563.1271972656251	145.2841949462891	-136.0471496582032	625.8755493164064	151.507080078125	-149.2858428955078	532.3618774414064	160.7419891357422	-199.7948608398438	632.9868164062501	167.3075103759766	-211.3046417236329	529.5335083007814	182.0587158203125	-254.7725067138672	527.0939331054689	166.5401458740235	-288.8889770507813	567.9802246093751	195.0260314941407	-307.9315795898438	635.0515136718751	143.0687561035157	-258.9561157226563	515.0449829101564	139.9990692138672	-340.2039489746094	561.2111816406251	159.2409362792969	-366.0372619628907	633.1551513671876	132.8787689208985	-339.7516479492188	540.5319824218751	153.799545288086	-420.788787841797	219.576156616211	672.9555053710939	322.4257812500001	223.2735595703126	643.8137817382814	269.1385803222657	264.0745239257813	603.8071899414064	321.0686340332032	282.6977539062501	581.3837890625001	265.9916687011719	520.0890502929689	373.2683715820313	612.1912841796876	528.4049072265626	324.9084472656251	592.5142822265626	547.2557983398439	334.0057983398438	636.8928833007814	569.9337768554689	289.1348571777344	607.1123657226564	655.2808227539064	331.5711669921876	732.7948608398439	650.7466430664064	310.8698425292969	775.2839965820315	698.9052124023439	335.0846557617188	751.2727050781251	773.0738525390627	145.4020080566407	665.5671997070314	695.7457885742189	126.0180358886719	738.0897827148439	
2	0.004166666666666667	292.1052551269532	1067.546875	279.2572021484376	194.6778259277344	1033.125122070313	307.2769165039063	297.2303466796876	1024.424072265625	71.07061004638673	105.6309432983399	929.518981933594	133.4277801513672	446.4986572265626	846.481140136719	-31.39074897766114	408.3537902832032	861.0383911132815	-76.35145568847658	442.5921936035157	793.702575683594	-97.39162445068362	398.6475524902345	800.5620727539065	-135.3954010009766	561.1230468750001	394.9862060546876	-177.6278686523438	549.0553588867189	387.1831970214845	-237.3965606689454	570.3725585937501	342.4371337890626	-201.9774475097657	547.8468627929689	331.5383911132813	-256.5728149414063	586.4971923828126	178.5894470214844	-161.6873474121094	555.2701416015626	138.7618103027344	-164.530746459961	617.4533081054689	144.5537719726563	-178.6067352294922	522.8798828125001	155.8793182373047	-226.5881347656251	623.2763671875001	160.597640991211	-240.7538146972657	518.9302978515626	177.8731079101563	-281.2012329101563	515.2244873046876	162.5763702392578	-315.2723999023438	556.3690185546876	190.0870666503907	-335.1633911132813	623.4109497070314	136.5429840087891	-288.6295471191407	500.8742675781251	136.5369720458985	-366.1109008789063	546.9716796875001	155.0965881347657	-393.3486633300782	618.9620361328126	127.0851974487305	-369.3761291503907	524.3963623046876	151.1000061035157	-447.3819274902345	216.0122222900391	671.4745483398439	300.1498413085938	219.000717163086	642.6727905273439	246.5284881591797	259.3139953613282	601.8685302734376	297.5943603515626	277.6014404296876	579.5481567382814	242.0633544921876	514.3120117187501	381.1807250976563	592.6600341796876	524.1694946289064	331.0310974121094	573.4733886718751	541.9281616210939	343.6156616210938	619.3674316406251	566.7847290039064	296.5979003906251	590.3915405273439	649.6843261718751	345.9913940429688	716.4435424804689	644.9278564453126	326.7033996582032	759.5485229492189	693.3831176757814	350.0002441406251	734.9969482421876	767.0972900390626	157.6180725097657	654.8927612304689	689.4561767578126	140.4810791015625	728.1415405273439	
3	0.008333333333333333	287.1918640136719	1068.22900390625	260.1613159179688	189.5554656982422	1033.484008789063	287.8335876464844	292.4534301757813	1025.029663085938	51.91601562500001	101.3911819458008	930.0433349609377	113.9668731689453	443.170623779297	843.669372558594	-49.55627059936525	404.3396911621095	857.0444335937502	-94.25318145751955	438.984344482422	789.8045043945315	-114.6341323852539	394.687713623047	795.7405395507815	-152.3667144775391	555.7462158203126	388.8421325683595	-200.5652770996094	541.8245239257814	381.9991455078126	-260.0660705566407	563.7649536132814	336.4455566406251	-225.8453216552735	539.7020874023439	326.5830993652344	-279.9907836914063	579.2710571289064	172.2137756347657	-188.134506225586	547.4069824218751	132.7315063476563	-190.6182556152344	609.2252807617189	137.7710571289063	-206.1190490722657	513.8911743164064	150.9072723388672	-251.7105255126954	613.9282836914064	154.2855377197266	-268.2177429199219	508.866424560547	173.7205200195313	-306.1263427734376	504.0574951171876	158.8802032470703	-340.5612487792969	545.2553100585939	185.382553100586	-360.3283691406251	612.3366699218751	130.5057525634766	-316.3023986816407	487.6006469726564	133.1770172119141	-390.5896606445314	533.6182250976564	151.0398559570313	-418.8056945800782	605.6147460937501	121.7007904052735	-396.9539794921876	509.4885864257814	148.6338043212891	-472.0703430175782	212.2706909179688	669.3614501953126	277.5607604980469	214.0823974609376	641.2385253906251	223.6288604736329	255.0916900634766	599.4077148437501	273.5750732421876	272.1375732421876	577.8557739257814	218.1152343750001	508.162811279297	389.2535705566407	572.1806640625001	518.9190063476564	338.5671691894532	555.0791625976564	536.7431640625001	352.5662841796876	599.5232543945314	561.7518920898439	305.4504699707032	573.8221435546876	643.5213623046876	360.6495361328126	699.1879882812501	638.0770874023439	342.3911743164063	742.6691894531251	686.9178466796876	364.9886779785157	718.0835571289064	761.0330810546876	170.3479156494141	643.6094970703126	682.5822143554689	155.3594360351563	716.3768920898439	
4	0.0125	282.2051696777344	1068.484008789063	241.2223205566407	184.3779754638672	1033.43359375	268.5616149902344	287.6708374023438	1025.652099609375	32.84355163574219	97.04087066650393	930.5338134765627	94.60166931152345	439.6534729003907	840.715270996094	-67.47913360595705	400.348846435547	853.1128540039065	-112.0038528442383	435.3711853027345	785.8170166015627	-131.7348785400391	390.7788696289064	790.9131469726565	-169.2572937011719	549.9581298828126	382.7069091796876	-222.1340637207032	534.8325195312501	376.7554016113282	-281.4232788085938	557.1389770507814	330.6283569335938	-248.2229766845704	531.8970336914064	321.5494689941407	-301.9629211425782	572.1502075195314	165.9840087890625	-212.8372192382813	539.8133544921876	126.9126510620117	-214.7705993652344	601.3138427734376	131.2447509765625	-231.7573547363282	505.3297119140626	146.4085540771485	-275.0818481445313	604.9450683593751	148.1940155029297	-293.7910461425782	499.1617431640626	168.9595489501953	-329.0077514648438	493.684539794922	154.7276763916016	-363.2040710449219	534.6868286132814	181.3069000244141	-384.7224121093751	601.9314575195314	124.6595458984375	-341.9868469238282	475.5928039550782	129.7622222900391	-413.209686279297	521.2176513671876	147.0943756103516	-442.5524902343751	593.3280029296876	116.8155136108399	-422.5001525878907	495.8795471191407	146.2326812744141	-494.9783630371095	208.0592651367188	666.8442993164064	254.8381347656251	208.9599609375001	639.4935302734376	200.4272155761719	250.7833251953126	596.2429199218751	249.3889160156251	266.2038269042969	575.5054321289064	193.5426788330079	501.5499267578126	397.1802673339845	550.5821533203126	513.3265380859376	346.1108093261719	535.4617919921876	530.5988769531251	362.2274475097657	579.6530761718751	556.2871704101564	314.4660949707032	555.9557495117189	636.5153198242189	375.3443603515626	680.5489501953126	630.3912353515626	358.1880798339844	724.4819946289064	679.7418823242189	380.1037292480469	700.1882934570314	754.8012084960939	183.6921691894532	631.3352050781251	675.1275634765626	170.388916015625	703.1815795898439	
